<svg width="200" height="200" viewBox="0 0 200 200" fill="none" xmlns="http://www.w3.org/2000/svg">
  <!-- Background Circle -->
  <circle cx="100" cy="100" r="95" fill="#3B82F6" opacity="0.1"/>

  <!-- Main Postcard -->
  <rect x="40" y="60" width="120" height="80" rx="8" fill="white" stroke="#3B82F6" stroke-width="3"/>

  <!-- Stamp -->
  <rect x="125" y="70" width="25" height="20" rx="2" fill="#3B82F6" opacity="0.3"/>
  <path d="M128 73 L138 78 L148 73" stroke="#3B82F6" stroke-width="1.5" stroke-linecap="round"/>
  <path d="M128 81 L138 86 L148 81" stroke="#3B82F6" stroke-width="1.5" stroke-linecap="round"/>

  <!-- Address Lines -->
  <line x1="50" y1="85" x2="110" y2="85" stroke="#94A3B8" stroke-width="2" stroke-linecap="round"/>
  <line x1="50" y1="95" x2="105" y2="95" stroke="#94A3B8" stroke-width="2" stroke-linecap="round"/>
  <line x1="50" y1="105" x2="100" y2="105" stroke="#94A3B8" stroke-width="2" stroke-linecap="round"/>

  <!-- Heart symbol (representing "to") -->
  <path d="M 60 120 C 60 117 62 115 64 115 C 66 115 67 116 68 118 C 69 116 70 115 72 115 C 74 115 76 117 76 120 C 76 123 68 130 68 130 C 68 130 60 123 60 120 Z" fill="#EF4444"/>

  <!-- Motion lines (sending) -->
  <path d="M 165 80 L 175 80" stroke="#3B82F6" stroke-width="2" stroke-linecap="round" opacity="0.4"/>
  <path d="M 168 90 L 178 90" stroke="#3B82F6" stroke-width="2" stroke-linecap="round" opacity="0.4"/>
  <path d="M 165 100 L 175 100" stroke="#3B82F6" stroke-width="2" stroke-linecap="round" opacity="0.4"/>
</svg>
